<svg width="714" height="162" viewBox="0 0 714 162" fill="none" xmlns="http://www.w3.org/2000/svg">
<path d="M0 38.756C0 17.3516 17.3516 0 38.756 0H163.292V123.244C163.292 144.648 145.94 162 124.536 162H0V38.756Z" fill="#424BE7"/>
<path d="M81.6133 28.4209H81.8555L82.7437 29.5513L83.7126 30.5202L84.2777 31.1661L90.2526 37.141V37.3025L90.4948 37.3832V37.5447L90.8178 37.7062L100.103 46.9915V47.153L100.426 47.3144L101.718 48.687L104.705 51.6745L105.351 52.2397L105.674 52.6434L105.836 52.7241V52.8856L106.159 53.0471L116.413 63.3013L116.978 63.9472L118.674 65.6428L119.239 66.2887L120.289 67.4191L121.015 68.3073L121.742 69.1147L122.469 70.0028L123.437 71.214L124.568 72.9903L125.698 75.1703L126.344 76.8659L126.909 78.8037L127.394 81.0644L127.717 83.083L127.959 85.4245V87.5238L127.555 90.9149L127.152 92.8527L126.425 95.4364L125.86 97.0513L124.568 99.7965L123.68 101.411L122.872 102.461L121.419 104.237L119.32 106.337L118.431 107.063L117.22 108.032L115.928 109.001L114.556 109.889L113.264 110.616L111.73 111.343L109.954 111.908L107.451 112.554L104.625 113.119L102.202 113.361L100.507 113.442H99.1342L96.712 113.2L94.7742 112.877L92.6749 112.231L90.8986 111.585L89.0415 110.777L88.4763 110.616V110.777L88.0726 110.697H87.9111L88.7185 111.423L97.3579 120.063L97.9231 120.709L106.401 129.186L107.047 129.752L108.904 131.609L109.55 132.174L110.277 132.82L110.761 133.143V133.385L110.438 133.466L108.581 133.304H54.7263L53.5152 133.385H52.3848L52.5463 133.062L53.3537 132.416L53.9996 131.851L55.3722 130.478L56.0182 129.913L68.6139 117.317L69.2598 116.752L71.1976 114.814H71.3591L71.5206 114.491L72.651 113.361L73.2161 112.715L76.1228 109.808L74.7502 110.454L73.4584 111.1L71.8435 111.827L69.5828 112.554L67.4835 113.038L65.2227 113.361L63.7694 113.442H61.9931L59.813 113.28L57.7137 112.957L55.0493 112.392L52.8693 111.746L51.0929 111.1L49.8011 110.454L48.5092 109.728L46.5714 108.436L45.5218 107.548L44.6336 106.821L44.0684 106.256L43.4225 105.691L42.4536 104.722L41.8884 104.076L40.8388 102.784L39.7891 101.331L38.8202 99.7158L38.0935 98.3431L37.2054 96.3246L36.398 93.9024L35.8328 91.6416L35.5098 89.7038L35.2676 87.3623V85.1015L35.5905 82.437L35.9135 80.4992L36.398 78.4807L36.8824 76.8659L37.5283 75.3318L38.3358 73.6362L38.9817 72.5058L39.4661 71.6984L39.7891 71.214L40.6773 70.1643L41.6462 69.0339L42.3728 68.1458L43.3417 67.0154L43.7454 66.6924L44.3106 66.0465L45.0373 65.4006L45.6025 64.7546L59.3286 51.0286L59.4093 50.8671H59.5708L59.7323 50.5441L60.3782 49.9789L60.7819 49.4945L61.4279 48.9293L61.8316 48.4448L62.4775 47.8796L62.962 47.3144L63.6079 46.7492L64.3346 45.9418L64.7383 45.6189L65.3035 44.9729L65.8687 44.4885L66.3531 43.9233H66.5146V43.7618L66.9183 43.4388L67.4835 42.7929L68.0487 42.3085L68.5331 41.7433H68.6946V41.5818L69.1791 41.1781L69.7443 40.5321L71.1976 39.0788H71.3591L71.5206 38.7558L72.4895 37.8677L72.8124 37.464L73.4584 36.8988L73.6199 36.6565H73.7813L73.9428 36.3336L74.5887 35.7684L75.3154 34.961L75.7191 34.638L76.2036 34.0728L76.8495 33.5076L77.2532 33.0232L77.8992 32.458L80.8059 29.5513L81.6133 28.4209Z" fill="#FCFCFC"/>
<path d="M228.823 28.6885C234.052 28.6885 238.516 30.2916 242.215 33.4979L239.33 36.5315C236.321 33.7692 232.818 32.388 228.823 32.388C223.643 32.388 219.648 34.2871 216.836 38.0853C214.074 41.8835 212.693 47.3342 212.693 54.4373C212.693 61.9844 214.074 67.7804 216.836 71.8252C219.648 75.8701 223.643 77.8925 228.823 77.8925C233.262 77.8925 237.061 76.3633 240.217 73.305L242.955 76.3387C239.157 79.8409 234.446 81.592 228.823 81.592C222.262 81.592 217.132 79.1997 213.433 74.4149C209.733 69.5808 207.883 62.9216 207.883 54.4373C207.883 46.3477 209.733 40.0338 213.433 35.4957C217.132 30.9576 222.262 28.6885 228.823 28.6885ZM254.616 35.4217C258.266 30.9329 263.371 28.6885 269.932 28.6885C276.492 28.6885 281.573 30.9329 285.174 35.4217C288.824 39.9105 290.649 46.249 290.649 54.4373C290.649 63.0696 288.824 69.7535 285.174 74.4889C281.573 79.2243 276.492 81.592 269.932 81.592C263.371 81.592 258.266 79.2243 254.616 74.4889C251.015 69.7535 249.214 63.0696 249.214 54.4373C249.214 46.249 251.015 39.9105 254.616 35.4217ZM281.77 37.9374C279.057 34.1885 275.111 32.3141 269.932 32.3141C264.752 32.3141 260.806 34.1885 258.093 37.9374C255.38 41.6862 254.024 47.1862 254.024 54.4373C254.024 62.1324 255.38 67.9777 258.093 71.9732C260.806 75.9687 264.752 77.9665 269.932 77.9665C275.111 77.9665 279.057 75.9687 281.77 71.9732C284.483 67.9777 285.84 62.1324 285.84 54.4373C285.84 47.1862 284.483 41.6862 281.77 37.9374ZM338.254 29.8723V81.0001H333.666L313.985 48.0001C311.173 43.1661 309.151 39.3185 307.917 36.4575H307.769C308.016 40.749 308.139 44.9172 308.139 48.962V81.0001H303.774V29.8723H308.361L327.377 61.9104C330.781 67.6324 333.025 71.8252 334.11 74.4889H334.258C333.962 70.888 333.814 66.8678 333.814 62.4284V29.8723H338.254ZM372.325 28.6885C377.554 28.6885 382.018 30.2916 385.717 33.4979L382.832 36.5315C379.823 33.7692 376.32 32.388 372.325 32.388C367.145 32.388 363.15 34.2871 360.338 38.0853C357.576 41.8835 356.195 47.3342 356.195 54.4373C356.195 61.9844 357.576 67.7804 360.338 71.8252C363.15 75.8701 367.145 77.8925 372.325 77.8925C376.764 77.8925 380.562 76.3633 383.719 73.305L386.457 76.3387C382.659 79.8409 377.948 81.592 372.325 81.592C365.764 81.592 360.634 79.1997 356.935 74.4149C353.235 69.5808 351.385 62.9216 351.385 54.4373C351.385 46.3477 353.235 40.0338 356.935 35.4957C360.634 30.9576 365.764 28.6885 372.325 28.6885ZM398.118 35.4217C401.768 30.9329 406.873 28.6885 413.434 28.6885C419.994 28.6885 425.075 30.9329 428.676 35.4217C432.326 39.9105 434.151 46.249 434.151 54.4373C434.151 63.0696 432.326 69.7535 428.676 74.4889C425.075 79.2243 419.994 81.592 413.434 81.592C406.873 81.592 401.768 79.2243 398.118 74.4889C394.517 69.7535 392.716 63.0696 392.716 54.4373C392.716 46.249 394.517 39.9105 398.118 35.4217ZM425.272 37.9374C422.559 34.1885 418.613 32.3141 413.434 32.3141C408.254 32.3141 404.308 34.1885 401.595 37.9374C398.882 41.6862 397.526 47.1862 397.526 54.4373C397.526 62.1324 398.882 67.9777 401.595 71.9732C404.308 75.9687 408.254 77.9665 413.434 77.9665C418.613 77.9665 422.559 75.9687 425.272 71.9732C427.985 67.9777 429.342 62.1324 429.342 54.4373C429.342 47.1862 427.985 41.6862 425.272 37.9374ZM461.704 28.6885C467.278 28.6885 471.594 29.9957 474.653 32.61C477.711 35.175 479.24 38.8499 479.24 43.6347C479.24 47.4822 477.982 50.6885 475.466 53.2535C472.951 55.8185 469.449 57.4216 464.96 58.0629V58.2109L481.016 81.0001H475.466L459.928 58.2849H451.567L451.641 81.0001H447.276V29.8723C452.702 29.0831 457.511 28.6885 461.704 28.6885ZM461.704 32.3141C457.955 32.4127 454.601 32.6347 451.641 32.98L451.567 54.7333H460.446C464.984 54.7333 468.462 53.7961 470.879 51.9217C473.296 49.9979 474.505 47.2356 474.505 43.6347C474.505 39.9351 473.395 37.1235 471.175 35.1997C469.005 33.2759 465.848 32.3141 461.704 32.3141ZM506.951 28.6885C513.709 28.6885 518.962 30.9822 522.711 35.5697C526.509 40.1078 528.408 46.471 528.408 54.6593C528.408 63.1436 526.509 69.7535 522.711 74.4889C518.962 79.2243 513.709 81.592 506.951 81.592C502.363 81.592 497.357 81.3947 491.931 81.0001V29.8723C497.061 29.0831 502.067 28.6885 506.951 28.6885ZM506.729 32.388C503.523 32.388 500.045 32.61 496.296 33.054V77.4485C499.453 77.7938 502.931 77.9171 506.729 77.8185C512.204 77.8185 516.397 75.8454 519.307 71.8992C522.218 67.9037 523.673 62.1571 523.673 54.6593C523.673 47.4575 522.218 41.9575 519.307 38.1593C516.397 34.3118 512.204 32.388 506.729 32.388ZM545.864 29.8723V81.0001H541.499V29.8723H545.864ZM592.719 81.0001L586.8 65.0181H565.49L559.793 81.0001H555.206L573.925 29.8723H578.291L597.528 81.0001H592.719ZM566.822 61.1705H585.394L580.511 47.9261C577.995 40.7737 576.515 36.3589 576.071 34.6818H575.923C575.085 37.5427 573.629 41.9575 571.558 47.9261L566.822 61.1705ZM626.946 60.6526V64.3521H604.379V60.6526H626.946ZM666.671 29.8723V33.7199H645.362V53.1795H663.416V56.953H645.362V81.0001H640.996V29.8723H666.671ZM693.074 28.6885C698.648 28.6885 702.989 30.0203 706.096 32.684C709.253 35.3477 710.832 39.0719 710.832 43.8566C710.832 48.8387 709.253 52.7109 706.096 55.4732C702.989 58.2355 698.599 59.6167 692.926 59.6167H682.863V81.0001H678.498V29.8723C684.417 29.0831 689.276 28.6885 693.074 28.6885ZM693.074 32.3141C689.177 32.4127 685.773 32.6347 682.863 32.98V55.9172H692.926C697.168 55.9172 700.399 54.8813 702.619 52.8095C704.888 50.7378 706.022 47.7535 706.022 43.8566C706.022 40.1078 704.912 37.2468 702.693 35.2737C700.473 33.3006 697.267 32.3141 693.074 32.3141Z" fill="#424BE7"/>
<path d="M208 118.5H707" stroke="#424BE7" stroke-width="3"/>
</svg>
