<svg width="16" height="16" viewBox="0 0 16 16" fill="none" xmlns="http://www.w3.org/2000/svg">
<path fillRule="evenodd" clipRule="evenodd" d="M8.00078 15.2C11.9772 15.2 15.2008 11.9765 15.2008 8.00005C15.2008 4.0236 11.9772 0.800049 8.00078 0.800049C4.02433 0.800049 0.800781 4.0236 0.800781 8.00005C0.800781 11.9765 4.02433 15.2 8.00078 15.2ZM12.9784 11.8216C13.0192 11.8922 13.0132 11.9807 12.9616 12.0439C11.788 13.4819 10.0016 14.4 8.00078 14.4C5.75595 14.4 3.78106 13.2443 2.63868 11.4954C2.55444 11.3664 2.6497 11.2 2.80373 11.2H7.93897C7.95891 11.2004 7.97884 11.2006 7.99875 11.2006C8.2772 11.201 8.55762 11.1651 8.83277 11.0908C9.10515 11.0177 9.36317 10.9095 9.60172 10.7714C9.84074 10.6336 10.0636 10.464 10.2631 10.2643C10.4626 10.0653 10.6322 9.84305 10.77 9.60466C10.9111 9.36164 11.0212 9.09834 11.0947 8.8202C11.1118 8.75588 11.2004 8.74202 11.2337 8.79965L12.9784 11.8216ZM2.01674 10.2746C2.04571 10.3507 2.11932 10.4 2.2008 10.4H5.67917C5.75014 10.4 5.78466 10.3107 5.73457 10.2605C5.53376 10.0594 5.36336 9.83477 5.22529 9.59381C5.09088 9.36022 4.9851 9.10807 4.91275 8.84214C4.83664 8.56377 4.79981 8.27991 4.80024 7.99807C4.80016 7.7193 4.83654 7.43859 4.91132 7.1632C4.98391 6.89457 5.0906 6.63994 5.22646 6.40425C5.23763 6.38479 5.24901 6.36544 5.2606 6.3462L8.00078 1.60005C4.46616 1.60005 1.60078 4.46543 1.60078 8.00005C1.60078 8.80112 1.74796 9.56781 2.01674 10.2746ZM8.82191 1.77784C8.86261 1.70734 8.94232 1.6683 9.0227 1.68119C12.0716 2.17045 14.4008 4.81324 14.4008 8.00005C14.4008 9.04278 14.1514 10.0273 13.7091 10.8971C13.6393 11.0343 13.4479 11.0347 13.371 10.9015L10.8033 6.45423C10.792 6.43381 10.7805 6.41353 10.7688 6.39338C10.6307 6.15493 10.4608 5.93271 10.261 5.7337C10.0641 5.5371 9.84468 5.36964 9.60941 5.23315C9.36563 5.09112 9.10137 4.98037 8.82214 4.90644C8.55038 4.8341 8.27359 4.79909 7.99871 4.79952C7.7241 4.79944 7.44762 4.83475 7.17619 4.9073C7.10765 4.92552 7.04761 4.85102 7.08307 4.7896L8.82191 1.77784ZM9.20078 5.92159C9.57023 6.1349 9.86588 6.43052 10.0792 6.80005L10.0807 6.80257C10.293 7.17132 10.4008 7.57466 10.4008 8.00005C10.4008 8.42639 10.2925 8.83066 10.0792 9.20005C9.86594 9.56949 9.57015 9.86525 9.20077 10.0785C8.83145 10.2917 8.42735 10.4 8.00079 10.4L7.99832 10.4C7.57261 10.3996 7.16946 10.2914 6.80078 10.0785C6.43148 9.8653 6.13548 9.56928 5.92231 9.20006C5.7091 8.83076 5.60079 8.42673 5.60079 8.00005C5.60079 7.57336 5.70908 7.16938 5.92231 6.80006L5.92633 6.79313C6.13925 6.42711 6.43372 6.13351 6.80077 5.9216C7.17017 5.70832 7.5743 5.60005 8.00079 5.60005C8.4272 5.60005 8.83144 5.70835 9.20078 5.92159Z" fill="#1F1D1C"/>
</svg>
