<svg width="14" height="14" viewBox="0 0 14 14" fill="none" xmlns="http://www.w3.org/2000/svg">
<path fillRule="evenodd" clipRule="evenodd" d="M7.00156 9.79961C8.54796 9.79961 9.80156 8.54601 9.80156 6.99961C9.80156 5.45321 8.54796 4.19961 7.00156 4.19961C5.45517 4.19961 4.20156 5.45321 4.20156 6.99961C4.20156 8.54601 5.45517 9.79961 7.00156 9.79961ZM7.00156 8.99961C8.10613 8.99961 9.00156 8.10418 9.00156 6.99961C9.00156 5.89504 8.10613 4.99961 7.00156 4.99961C5.89699 4.99961 5.00156 5.89504 5.00156 6.99961C5.00156 8.10418 5.89699 8.99961 7.00156 8.99961Z" fill="#1F1D1C"/>
<path d="M10.6016 4.19961C10.8225 4.19961 11.0016 4.02052 11.0016 3.79961C11.0016 3.5787 10.8225 3.39961 10.6016 3.39961C10.3806 3.39961 10.2016 3.5787 10.2016 3.79961C10.2016 4.02052 10.3806 4.19961 10.6016 4.19961Z" fill="#1F1D1C"/>
<path fillRule="evenodd" clipRule="evenodd" d="M4.20156 0.599609C2.21334 0.599609 0.601562 2.21138 0.601562 4.19961V9.79961C0.601562 11.7878 2.21334 13.3996 4.20156 13.3996H9.80156C11.7898 13.3996 13.4016 11.7878 13.4016 9.79961V4.19961C13.4016 2.21138 11.7898 0.599609 9.80156 0.599609H4.20156ZM9.80156 1.39961H4.20156C2.65517 1.39961 1.40156 2.65321 1.40156 4.19961V9.79961C1.40156 11.346 2.65517 12.5996 4.20156 12.5996H9.80156C11.348 12.5996 12.6016 11.346 12.6016 9.79961V4.19961C12.6016 2.65321 11.348 1.39961 9.80156 1.39961Z" fill="#1F1D1C"/>
</svg>
