<svg width="15" height="15" viewBox="0 0 15 15" fill="none" xmlns="http://www.w3.org/2000/svg">
<path fill-rule="evenodd" clip-rule="evenodd" d="M5.46726 4.26658C5.62264 4.3088 5.72828 4.44351 5.79367 4.59064L6.3901 5.93261C6.46777 6.10736 6.43455 6.32745 6.33344 6.48978C6.16907 6.75369 5.98252 7.1058 6.11401 7.38754C6.44367 8.09388 6.90011 8.52537 7.58881 8.85981C7.87018 8.99644 8.2199 8.79586 8.48383 8.62799C8.63583 8.53132 8.8502 8.49444 9.01417 8.56902L10.4129 9.20521C10.5574 9.2709 10.6894 9.37545 10.7317 9.52838C10.9538 10.3318 9.98383 11.3648 9.23447 11.3648C8.49907 11.3648 7.77087 11.2199 7.09145 10.9385C6.41202 10.6571 5.79468 10.2446 5.27467 9.72459C4.75467 9.20459 4.34217 8.58725 4.06075 7.90782C3.77932 7.2284 3.63447 6.5002 3.63447 5.7648C3.63447 5.01657 4.66433 4.04843 5.46726 4.26658ZM5.74318 6.15135L5.19485 4.9176C5.0801 4.92794 4.90056 4.99017 4.69362 5.16847C4.41507 5.40845 4.31447 5.66591 4.31447 5.7648C4.31447 6.4109 4.44173 7.05068 4.68899 7.6476C4.93624 8.24452 5.29864 8.7869 5.75551 9.24376C6.21237 9.70063 6.75475 10.063 7.35167 10.3103C7.94859 10.5575 8.58837 10.6848 9.23447 10.6848C9.33359 10.6848 9.59167 10.5838 9.83175 10.3045C10.011 10.0961 10.0724 9.91599 10.0819 9.80167L8.81287 9.22449C8.67878 9.30882 8.4831 9.42502 8.266 9.50043C8.02973 9.58251 7.66412 9.65232 7.29176 9.4715C6.47577 9.07524 5.89942 8.53562 5.49782 7.67512C5.3291 7.31362 5.38922 6.95841 5.46604 6.7219C5.53982 6.49475 5.65649 6.29179 5.74318 6.15135Z" fill="#1F1D1C"/>
<path fill-rule="evenodd" clip-rule="evenodd" d="M7.19922 14.8C11.0652 14.8 14.1992 11.666 14.1992 7.80005C14.1992 3.93406 11.0652 0.800049 7.19922 0.800049C3.33323 0.800049 0.199219 3.93406 0.199219 7.80005C0.199219 8.96657 0.48456 10.0665 0.989253 11.0337C1.03707 11.1253 1.05047 11.2314 1.02372 11.3313L0.228805 14.2979C0.149109 14.5954 0.421275 14.8675 0.718703 14.7878L3.69595 13.9901C3.79521 13.9635 3.90066 13.9766 3.99196 14.0237C4.9528 14.5199 6.04329 14.8 7.19922 14.8ZM13.3992 7.80005C13.3992 11.2242 10.6234 14 7.19922 14C6.17397 14 5.20905 13.7518 4.35902 13.3129C4.09938 13.1788 3.78977 13.1367 3.4889 13.2173L1.18086 13.8358L1.79646 11.5383C1.87756 11.2357 1.83448 10.9242 1.69851 10.6636C1.25201 9.8079 0.999219 8.83467 0.999219 7.80005C0.999219 4.37588 3.77505 1.60005 7.19922 1.60005C10.6234 1.60005 13.3992 4.37588 13.3992 7.80005Z" fill="#1F1D1C"/>
</svg>
